<svg width="114" height="52" viewBox="0 0 114 52" fill="none" xmlns="http://www.w3.org/2000/svg">
<path d="M3.77344 41V6.64062H19.0078C22.0703 6.64062 24.3984 6.95312 25.9922 7.57812C27.5859 8.1875 28.8594 9.27344 29.8125 10.8359C30.7656 12.3984 31.2422 14.125 31.2422 16.0156C31.2422 18.4531 30.4531 20.5078 28.875 22.1797C27.2969 23.8516 24.8594 24.9141 21.5625 25.3672C22.7656 25.9453 23.6797 26.5156 24.3047 27.0781C25.6328 28.2969 26.8906 29.8203 28.0781 31.6484L34.0547 41H28.3359L23.7891 33.8516C22.4609 31.7891 21.3672 30.2109 20.5078 29.1172C19.6484 28.0234 18.875 27.2578 18.1875 26.8203C17.5156 26.3828 16.8281 26.0781 16.125 25.9062C15.6094 25.7969 14.7656 25.7422 13.5938 25.7422H8.32031V41H3.77344ZM8.32031 21.8047H18.0938C20.1719 21.8047 21.7969 21.5938 22.9688 21.1719C24.1406 20.7344 25.0312 20.0469 25.6406 19.1094C26.25 18.1562 26.5547 17.125 26.5547 16.0156C26.5547 14.3906 25.9609 13.0547 24.7734 12.0078C23.6016 10.9609 21.7422 10.4375 19.1953 10.4375H8.32031V21.8047ZM54.8906 32.9844L59.25 33.5234C58.5625 36.0703 57.2891 38.0469 55.4297 39.4531C53.5703 40.8594 51.1953 41.5625 48.3047 41.5625C44.6641 41.5625 41.7734 40.4453 39.6328 38.2109C37.5078 35.9609 36.4453 32.8125 36.4453 28.7656C36.4453 24.5781 37.5234 21.3281 39.6797 19.0156C41.8359 16.7031 44.6328 15.5469 48.0703 15.5469C51.3984 15.5469 54.1172 16.6797 56.2266 18.9453C58.3359 21.2109 59.3906 24.3984 59.3906 28.5078C59.3906 28.7578 59.3828 29.1328 59.3672 29.6328H40.8047C40.9609 32.3672 41.7344 34.4609 43.125 35.9141C44.5156 37.3672 46.25 38.0938 48.3281 38.0938C49.875 38.0938 51.1953 37.6875 52.2891 36.875C53.3828 36.0625 54.25 34.7656 54.8906 32.9844ZM41.0391 26.1641H54.9375C54.75 24.0703 54.2188 22.5 53.3438 21.4531C52 19.8281 50.2578 19.0156 48.1172 19.0156C46.1797 19.0156 44.5469 19.6641 43.2188 20.9609C41.9062 22.2578 41.1797 23.9922 41.0391 26.1641ZM80.8125 31.8828L84.9609 32.4219C84.5078 35.2812 83.3438 37.5234 81.4688 39.1484C79.6094 40.7578 77.3203 41.5625 74.6016 41.5625C71.1953 41.5625 68.4531 40.4531 66.375 38.2344C64.3125 36 63.2812 32.8047 63.2812 28.6484C63.2812 25.9609 63.7266 23.6094 64.6172 21.5938C65.5078 19.5781 66.8594 18.0703 68.6719 17.0703C70.5 16.0547 72.4844 15.5469 74.625 15.5469C77.3281 15.5469 79.5391 16.2344 81.2578 17.6094C82.9766 18.9688 84.0781 20.9062 84.5625 23.4219L80.4609 24.0547C80.0703 22.3828 79.375 21.125 78.375 20.2812C77.3906 19.4375 76.1953 19.0156 74.7891 19.0156C72.6641 19.0156 70.9375 19.7812 69.6094 21.3125C68.2812 22.8281 67.6172 25.2344 67.6172 28.5312C67.6172 31.875 68.2578 34.3047 69.5391 35.8203C70.8203 37.3359 72.4922 38.0938 74.5547 38.0938C76.2109 38.0938 77.5938 37.5859 78.7031 36.5703C79.8125 35.5547 80.5156 33.9922 80.8125 31.8828Z" fill="black"/>
<path d="M88.5938 28.5547C88.5938 23.9453 89.875 20.5312 92.4375 18.3125C94.5781 16.4688 97.1875 15.5469 100.266 15.5469C103.688 15.5469 106.484 16.6719 108.656 18.9219C110.828 21.1562 111.914 24.25 111.914 28.2031C111.914 31.4062 111.43 33.9297 110.461 35.7734C109.508 37.6016 108.109 39.0234 106.266 40.0391C104.438 41.0547 102.438 41.5625 100.266 41.5625C96.7812 41.5625 93.9609 40.4453 91.8047 38.2109C89.6641 35.9766 88.5938 32.7578 88.5938 28.5547ZM92.9297 28.5547C92.9297 31.7422 93.625 34.1328 95.0156 35.7266C96.4062 37.3047 98.1562 38.0938 100.266 38.0938C102.359 38.0938 104.102 37.2969 105.492 35.7031C106.883 34.1094 107.578 31.6797 107.578 28.4141C107.578 25.3359 106.875 23.0078 105.469 21.4297C104.078 19.8359 102.344 19.0391 100.266 19.0391C98.1562 19.0391 96.4062 19.8281 95.0156 21.4062C93.625 22.9844 92.9297 25.3672 92.9297 28.5547Z" fill="#00C2A0"/>
</svg>
